<svg width="959" height="227" viewBox="0 0 959 227" fill="none" xmlns="http://www.w3.org/2000/svg">
<path d="M40 105.5C40 64.9071 72.9071 32 113.5 32H845.5C886.093 32 919 64.9071 919 105.5V105.5C919 146.093 886.093 179 845.5 179H113.5C72.9071 179 40 146.093 40 105.5V105.5Z" fill="white" style="mix-blend-mode:multiply"/>
<g filter="url(#filter0_d_88_398)">
<path d="M40 105.5C40 64.9071 72.9071 32 113.5 32H845.5C886.093 32 919 64.9071 919 105.5V105.5C919 146.093 886.093 179 845.5 179H113.5C72.9071 179 40 146.093 40 105.5V105.5Z" fill="white" fill-opacity="0.65" shape-rendering="crispEdges"/>
<path d="M40 105.5C40 64.9071 72.9071 32 113.5 32H845.5C886.093 32 919 64.9071 919 105.5V105.5C919 146.093 886.093 179 845.5 179H113.5C72.9071 179 40 146.093 40 105.5V105.5Z" fill="#DDDDDD" style="mix-blend-mode:color-burn" shape-rendering="crispEdges"/>
<path d="M40 105.5C40 64.9071 72.9071 32 113.5 32H845.5C886.093 32 919 64.9071 919 105.5V105.5C919 146.093 886.093 179 845.5 179H113.5C72.9071 179 40 146.093 40 105.5V105.5Z" fill="#F7F7F7" style="mix-blend-mode:darken" shape-rendering="crispEdges"/>
</g>
<path d="M40 105.5C40 64.9071 72.9071 32 113.5 32H845.5C886.093 32 919 64.9071 919 105.5V105.5C919 146.093 886.093 179 845.5 179H113.5C72.9071 179 40 146.093 40 105.5V105.5Z" fill="black" fill-opacity="0.01"/>
<defs>
<filter id="filter0_d_88_398" x="0" y="0" width="959" height="227" filterUnits="userSpaceOnUse" color-interpolation-filters="sRGB">
<feFlood flood-opacity="0" result="BackgroundImageFix"/>
<feColorMatrix in="SourceAlpha" type="matrix" values="0 0 0 0 0 0 0 0 0 0 0 0 0 0 0 0 0 0 127 0" result="hardAlpha"/>
<feOffset dy="8"/>
<feGaussianBlur stdDeviation="20"/>
<feComposite in2="hardAlpha" operator="out"/>
<feColorMatrix type="matrix" values="0 0 0 0 0 0 0 0 0 0 0 0 0 0 0 0 0 0 0.12 0"/>
<feBlend mode="normal" in2="BackgroundImageFix" result="effect1_dropShadow_88_398"/>
<feBlend mode="normal" in="SourceGraphic" in2="effect1_dropShadow_88_398" result="shape"/>
</filter>
</defs>
</svg>
