<svg width="200" height="200" viewBox="0 0 200 200" fill="none" xmlns="http://www.w3.org/2000/svg">
<rect width="200" height="200" rx="100" fill="#242424" style="mix-blend-mode:plus-lighter"/>
<rect width="200" height="200" rx="100" fill="black" fill-opacity="0.01"/>
<path d="M86.3184 150L84.3284 134C83.2504 133.583 82.2347 133.083 81.2811 132.5C80.3275 131.917 79.3947 131.292 78.4826 130.625L63.6816 136.875L50 113.125L62.8109 103.375C62.728 102.792 62.6866 102.229 62.6866 101.688V98.3125C62.6866 97.7708 62.728 97.2083 62.8109 96.625L50 86.875L63.6816 63.125L78.4826 69.375C79.3947 68.7083 80.3483 68.0833 81.3433 67.5C82.3383 66.9167 83.3333 66.4167 84.3284 66L86.3184 50H113.682L115.672 66C116.75 66.4167 117.765 66.9167 118.719 67.5C119.672 68.0833 120.605 68.7083 121.517 69.375L136.318 63.125L150 86.875L137.189 96.625C137.272 97.2083 137.313 97.7708 137.313 98.3125V101.688C137.313 102.229 137.231 102.792 137.065 103.375L149.876 113.125L136.194 136.875L121.517 130.625C120.605 131.292 119.652 131.917 118.657 132.5C117.662 133.083 116.667 133.583 115.672 134L113.682 150H86.3184ZM100.249 117.5C105.058 117.5 109.163 115.792 112.562 112.375C115.962 108.958 117.662 104.833 117.662 100C117.662 95.1667 115.962 91.0417 112.562 87.625C109.163 84.2083 105.058 82.5 100.249 82.5C95.3566 82.5 91.2313 84.2083 87.8731 87.625C84.5149 91.0417 82.8358 95.1667 82.8358 100C82.8358 104.833 84.5149 108.958 87.8731 112.375C91.2313 115.792 95.3566 117.5 100.249 117.5Z" fill="white"/>
</svg>
